<?xml version="1.0" encoding="UTF-8"?>
<svg id="Layer_1" data-name="Layer 1" xmlns="http://www.w3.org/2000/svg" viewBox="0 0 70 52">
  <defs>
    <style>
      .cls-1 {
        stroke-miterlimit: 10;
        stroke-width: 3px;
      }

      .cls-1, .cls-2 {
        fill: none;
        stroke: #fff;
        stroke-linecap: round;
      }

      .cls-2 {
        stroke-linejoin: bevel;
        stroke-width: .25px;
      }
    </style>
  </defs>
  <path class="cls-1" d="M67.29,45.72c-1.46,3.39-4.8,4.24-5.16,4.32h-30.88c-1.63,0-8.57.13-14.63-.11-.72-.03-1.43-.22-2.05-.59,0,0,0,0,0,0-.22-.14-2.32-1.44-4.74-3.87-3.55-3.57-7.77-9.58-7.71-17.9.09-12.66,9.99-19.81,11.65-20.95,3.85-2.67,7.6-3.71,9.75-4.14C36.8-.21,52.57,7.45,56.05,15.47l.02.05.35.76,9.58,20.83.89,1.94c.18.32,1.85,3.31.4,6.67Z"/>
  <path class="cls-1" d="M66.01,37.11h-12.06c-7.05-.18-10.58-.14-15.28-4.94-5.23-5.33-5.23-9.15-5.14-12.6s2.54-3.29,2.54-3.29h20.36l9.58,20.83Z"/>
  <line class="cls-1" x1="47" y1="36.69" x2="36.62" y2="16.29"/>
  <line class="cls-1" x1="54.66" y1="37.11" x2="44.06" y2="16.29"/>
  <circle class="cls-1" cx="27.04" cy="23.88" r="3.07"/>
  <polyline class="cls-2" points="16.05 47.48 16.34 47.94 16.56 47.48"/>
</svg>